<?xml version="1.0" standalone="no"?>
<!DOCTYPE svg PUBLIC "-//W3C//DTD SVG 1.1//EN" "http://www.w3.org/Graphics/SVG/1.1/DTD/svg11.dtd" >
<svg xmlns="http://www.w3.org/2000/svg">
<metadata>Generated by IcoMoon</metadata>
<defs>
<font id="icomoon" horiz-adv-x="1024">
<font-face units-per-em="1024" ascent="960" descent="-64" />
<missing-glyph horiz-adv-x="1024" />
<glyph unicode="&#x20;" horiz-adv-x="512" d="" />
<glyph unicode="&#xe900;" glyph-name="whatsapp" d="M472 958.8c-138.8-13-260.2-74.2-347.6-175.6-64.8-75-104.8-162-119.6-260.2-5-33.4-5.2-104.8-0.2-137 8.4-54.8 23.6-103.8 47.4-152.8l10.2-20.8-30.2-137.4c-16.6-75.6-30-137.8-29.6-138 0.4-0.4 4.2 0 8.6 1s67 15.4 139 31.8l131 29.8 19-8.6c50.6-22.8 105.4-37.6 159.6-43.2 33.6-3.4 105.2-1.4 135 4 91.2 16.2 169.2 51.2 239.4 107.4 21.8 17.6 59.2 55 76.8 76.8 60.6 75.8 99 167.6 109.2 260.8 2.8 25.8 2.8 84.8 0 110.2-17 153-105.2 291.6-239.8 377-53.8 34-126.4 60.2-196.2 71-20.4 3-92.8 5.6-112 3.8zM553.2 877.8c94-9.2 182.2-48.6 249.8-111.6 75-70 122-158.4 136-256.6 4.2-30.4 4.2-85.2 0-114.8-11.4-77.8-43.6-151.4-92.4-211.2-14.8-17.8-47-49.8-64.6-63.8-60.2-48.2-136.8-80.8-213.6-90.8-26.2-3.4-85-4-107.8-1-50 6.8-96 20.6-140.2 42l-28.6 14-92.2-21c-50.8-11.6-92.4-20.8-92.6-20.6-0.2 0.4 8.4 40.2 19.2 88.6s19.6 90 19.6 92.4c0.2 2.4-3 10-7 16.8-45.8 78.2-66.2 172-56 259.4 27 232.4 236.8 401 470.4 378.2zM332.4 671.8c-10.4-5.2-26.8-23-37-40.2-21-35.2-22.8-80.6-5.2-125.4 21.4-54 86-136.4 143.8-183.4 44.6-36.4 97.6-62 164-79.2 29.4-7.8 59.4-8.4 80-1.8 24 7.6 53.4 28.6 62.8 44.8 10 17.4 15.6 56.6 9.2 64.4-3 3.6-85.6 44.8-100.8 50.2-15.4 5.6-17.6 4.6-33.8-15.6-33.8-42.6-37-45.4-49-41.4-9.6 3-44.6 20.4-57.4 28.4-38.8 24-79.2 65.6-104 106.8-10.2 17-9.6 19.6 8.2 38.6 9.2 9.8 17.2 20.8 20.4 27.6l5 11.2-4 11.2c-2.2 6-11.6 29.4-20.8 51.8-12.6 30.6-18.6 42.8-24 48.6l-7.2 7.6h-20.8c-17.2 0-22.4-0.8-29.4-4.2z" />
<glyph unicode="&#xe901;" glyph-name="facebook-logo-in-circular-shape" d="M458 953.8c-123.8-12.6-247.6-76.4-328.6-169.4-80.8-92.8-124-200.6-128.8-321.4-7-182.8 85.2-355.2 242.8-453.2 52.6-32.8 124.4-60.2 180.2-68.8l8.4-1.4v432.4h-82l0.4 70.6 0.6 70.4 40.6 0.6 40.4 0.4v20.2c0 71.2 19.8 137 55.2 184.4 55.2 73.6 156.4 103.4 274.4 81.2 21.8-4.2 22.4-4.4 22.4-9.6 0-10-6.4-139.2-7-141.6-0.6-1.8-3.4-1.6-11.4 0.6-16.4 4.4-50 6.8-65.2 4.6-26.6-3.8-49.4-19.6-61-42.4-8.6-17-13-38.4-14.6-69.4l-1.4-28 62.8-0.4 62.8-0.6 0.6-70.4 0.4-70.6h-124v-213.2c0-202 0.2-213 3.6-212 1.8 0.4 10.6 2.8 19.4 5.2 92.2 24.8 184.6 83 247.8 156 68 78.4 107.6 165.4 122.4 269 4.2 30 5 103.8 1.2 130-13.4 92.6-46.4 175-98.2 243.8-86.8 115.4-217 189-359 203-25.2 2.6-80.2 2.4-105.2 0z" />
<glyph unicode="&#xe902;" glyph-name="youtube" d="M463 957.8c-160-16.6-300.2-103.6-385.4-239.2-120.8-192-98.2-446 54.4-613 84.6-92.6 190.2-148 317-166 23.6-3.4 102.2-3.2 127 0 115.8 16 219.4 67.4 298.2 147.8 26 26.4 31.4 32.6 48.6 55.4 51.2 68.2 84.6 151.4 97.6 242.2 3.4 23.6 3.4 102.4 0 126-8.6 60.6-24.4 112.2-49.4 162.8-26.8 53.6-54 91.8-96.6 134.8-79 80-177.8 129.8-291.4 146.6-24.6 3.6-95.6 5.2-120 2.6zM623 670c123.2-4.4 149.4-9.2 172.6-30.8 19.2-18 27.2-41.8 32.6-98.2 3.4-34.8 3.6-146 0.2-182-5.2-54.4-10.2-75-22.2-91-16.6-22-33-30.4-69.8-35-98.6-12.4-384.6-11.2-460.8 2-39.2 6.8-64 30-72.2 68-9.6 43.6-13.8 135.4-9.4 206 5 82.2 11 105.6 32.2 128 18.2 19.2 35.4 24.6 92.8 29 70.4 5.6 211.2 7.4 304 4zM448 448v-96l9.6 5.4c123 70.4 156.2 89.8 156.2 90.6s-33.2 20.2-156.2 90.6l-9.6 5.4v-96z" />
<glyph unicode="&#xe903;" glyph-name="twitter" d="M15 954.6c2-3.2 89.6-130.6 194.6-283.6s191-279 191-280c0-1.2-86.2-102.4-191.8-225.2-105.4-122.6-193-224.6-194.6-226.4-2.6-3.2 0.2-3.4 41.2-3.4h44l169.8 197.4c93.4 108.4 170.8 197.6 171.8 197.8 1.2 0.4 63.2-88.4 137.8-197.2l135.8-198h148.8c141 0 148.6 0.2 146.8 3.6-1 1.8-92 134.4-202 294.4s-200.2 291.4-200.2 292c0 0.8 83.6 98.4 185.8 217l185.6 216-43 0.6c-35.4 0.4-43.6 0-46.2-2.4-1.8-1.6-74.8-86.2-162.2-187.8-87.4-101.8-159.6-184.6-160.4-184.2-0.8 0.6-59.2 85-129.8 187.8l-128.4 187h-297.8l3.4-5.4zM578 448.8c171-244.8 311.4-445.8 311.6-447 0.6-1.2-23.6-1.6-66.8-1.4l-67.6 0.6-311.6 445.6c-171.4 245.2-311.6 446.2-311.6 446.6s30.4 0.8 67.6 0.8l67.4-0.2 311-445z" />
<glyph unicode="&#xe904;" glyph-name="right-arrow" d="M581.8 871.4c-12.8-4.8-20.4-10.6-42.2-33-25.2-25.4-30.2-34.4-30.2-54.4 0-24.8-2.8-21.2 120.2-144.4l111.4-111.6h-347.4c-344.4 0-347.6 0-358.4-4-14.8-5.6-27.8-19.6-32.2-34.8-2.6-9-3.2-18.2-2.6-44.8 0.6-29 1.2-34.6 5-42.6 5-11.2 16.8-23.6 27.6-28.8 7.8-4 15-4 358.6-5l350.4-1-112-112c-123.4-123.4-120.8-120.2-120.6-144.4 0.2-19.2 6.2-29.6 33-55.8 28-27.6 35.2-31.8 55.6-31.8 12.4 0.2 16.8 1 25 5.4 13.4 7.2 390.6 384.6 396.2 396.6s5.2 35.2-1 47.2c-6.4 12.8-385.6 391.6-397 396.8-10.4 4.6-30.2 5.8-39.4 2.4z" />
<glyph unicode="&#xe905;" glyph-name="world" d="M463 957.8c-97-10-188.6-47-266.8-107.4-22.2-17-69.6-64.4-86.6-86.6-31.6-40.6-61.8-94.8-78.8-140.8-9.4-25.6-21.4-73.4-26-104-5.2-33.6-5.2-108.2 0-142 4.6-30.2 16.6-78.2 26.2-104.2 17-46.2 47-100 78.6-140.6 16.2-21 62-67.2 82.4-83.4 41.4-32.6 97.6-64.4 144.8-81.8 26-9.6 74-21.6 104.2-26.2 29.6-4.4 106.4-5.2 134-1.2 96.4 13.8 177.6 48 253 106 20.6 16 66.8 61.8 83.2 82.4 32.2 40.8 64.6 98.2 81.8 144.8 9.6 26 21.6 74 26.2 104.2 2.8 18 3.6 35.8 3.6 71s-0.8 53-3.6 71c-4.6 30.2-16.6 78.2-26.2 104.2-17.4 47.2-49.4 103.6-81.8 144.8-15.6 19.8-60 64-80.2 80-71.6 56.8-154.8 92.8-247 107-25.2 3.8-95.4 5.6-121 2.8zM482 807v-87h-68c-37.4 0-68 0.2-68 0.6 0 2.6 16.2 40 25 57.2 26.2 52.4 59 90.2 96 110.6 5.6 3 11.2 5.6 12.6 5.6 1.8 0 2.4-18.8 2.4-87zM562 885.6c19.4-10.6 50.8-41.8 67.2-66.6 14-21 31.4-54.6 41.6-79.8 4-10 7.2-18.2 7.2-18.6s-30.6-0.6-68-0.6h-68v87c0 68.2 0.6 87 2.6 87 1.2 0 9.2-3.8 17.4-8.4zM343.8 850.6c-17.4-26.2-40.8-73.2-52.6-105.6l-8.8-24-65.4-0.6-65.4-0.4 4 5.6c22.4 31.4 71.2 75.8 113.2 103.2 22.2 14.4 80.2 43 87.6 43.2 0.8 0-4.8-9.6-12.6-21.4zM685.4 865.2c48.4-20.8 88.8-46.2 128.6-81.2 15.4-13.6 45.2-45.8 54.2-58.2l4.2-5.8-65.4 0.4-65.4 0.6-8.8 24c-11.6 31.8-35.2 79.4-51 103-7 10.4-13.6 20.2-14.4 21.6-2.4 3.8 1 3 18-4.4zM261.8 642.6c-2-9.8-6-32-8.6-49.6-4.4-28.4-6.4-47.2-10.4-100.4l-1.2-14.6h-180.2l1.4 17.4c3.2 41.2 19.8 101.2 39.4 142.8l10.4 21.8h152.8l-3.6-17.4zM482 569v-91h-180.2l1.2 15.6c4.8 64.6 9.6 101 18.4 140.4 2.8 12.6 5.4 23.6 6 24.6 0.4 0.8 35.4 1.4 77.8 1.4h76.8v-91zM701.4 640c8.6-36.8 14.8-82.6 19.6-146.4l1.2-15.6h-180.2v182l77.4-0.4 77.4-0.6 4.6-19zM921.6 638.4c12.2-26.2 22.4-54.8 29.2-82.6 5.6-23.2 11.2-57.6 11.2-69.8v-8h-179.6l-1.2 12.6c-0.4 6.8-2 25.4-3.2 41.4-2.2 30-9.4 79.8-15.8 110.6l-3.6 17.4h152.8l10.2-21.6zM242.8 402.6c4.8-63.4 8.8-95 20.6-158l1.2-6.6h-152.8l-10.2 21.4c-19.4 41.4-35.8 100.4-38.8 141.2l-1.4 17.4h180.2l1.2-15.4zM482 328v-90h-155.4l-5.4 24.6c-8.8 41.2-13.2 75-18.2 140l-1.2 15.4h180.2v-90zM721 402.6c-5-65-9.4-98.8-18.2-140l-5.4-24.6h-155.4v180h180.2l-1.2-15.4zM962 410c0-12.4-5.6-46.8-11.2-69.8-7-28-17.2-56.8-28.8-81.6l-9.8-20.6h-76c-64.8 0-76.2 0.4-76.2 2.8 0 1.6 1.4 9.6 3.2 17.6 5.8 28 12.6 75.6 14.8 105 1.2 16.2 2.8 35.2 3.2 42.2l1.2 12.4h179.6v-8zM291 151.6c12.4-33.6 37-83 53.8-107.6 7-10.4 12.6-19.2 12.2-19.6-1.2-1.2-28 10.2-49.8 21.2-25 12.6-55 32-78.2 50.4-19.2 15.2-56.2 52.2-69.6 69.6l-9.6 12.4h131.6l9.6-26.4zM482 89.8v-88l-4.4 1.2c-13.8 4.2-32 17-50.8 35.8-22.4 22.6-39.6 46.8-55.8 79.4-10.2 20.2-25 54.8-25 58.2 0 0.8 30.6 1.6 68 1.6h68v-88.2zM678 176.2c0-4-18.6-46.2-29.2-66-16.6-31.2-29.4-49-51.8-71.4-18.6-18.8-37-31.6-50.4-35.8l-4.6-1.2v176.2h68c39.4 0 68-0.8 68-1.8zM866 167.6c-37.2-47.2-89.2-90.4-142.2-118.4-23-12-53.6-25.6-56-24.8-0.8 0.4 4.2 9.2 11.4 19.6 16.8 24.6 41.4 74 53.8 107.6l9.6 26.4h131.8l-8.4-10.4z" />
<glyph unicode="&#xe906;" glyph-name="live-chat" d="M480.2 916c-165.2-14.6-301.8-131.8-341.4-293-5.2-21.6-10.8-63.2-10.8-81.2 0-11.4 0-11.4-6.8-12.6-22.2-4.2-52.8-28.2-64.8-50.8-12.6-23.8-13.4-29.4-13.4-94.4 0-51.6 0.4-60.6 3.6-71 11.4-36.8 37.6-63 74.4-74.4 9.6-2.8 18.8-3.6 47-3.6 33.6 0 35.4 0.2 44 5 4.8 2.8 11.6 9 15 13.6l6 8.8v243.2l-6 8.8c-9.2 12.8-20.4 18.2-40.4 19.2-9.2 0.6-16.6 1.4-16.6 2.2 0 0.6 1 12 2.2 25.2 5.2 60.2 23.6 112.6 58 164.2 18 27 58.2 67.8 85.8 87.4 36.6 25.8 84 46 131 55.8 19.2 4 27.6 4.6 66 4.6 38-0.2 46.8-0.8 65-4.6 46.8-10.2 93.8-30.4 130-55.8 27.6-19.6 67.8-60.4 85.8-87.4 34.4-51.6 52.8-104 58-164.2 1.2-13.2 2.2-24.6 2.2-25.2 0-0.8-7.4-1.8-16.4-2.2-25-1.4-40.4-11.2-45.6-29.2-1.6-5-2-45-1.6-124.8l0.6-117.2 6-8.8c9.2-12.8 20.4-18.2 40.4-19.2l16.6-1-1.2-11.2c-5.6-53.6-36.4-98.2-83.8-121.2-25.2-12.2-40.2-15-78.4-15h-31.6l-6.6 14c-11.6 24.8-34.8 42.8-62.2 48-13.6 2.6-75.4 2.6-91 0-36.8-6-65.4-34.8-71.4-71.8-7.2-44.8 25.4-88.8 71.4-96.2 15.6-2.6 77.4-2.6 91 0 27.2 5.2 50.4 23 62.2 47.8l6.6 13.6 36 1.2c29.4 1 39.6 2 55.8 6.2 80.6 20.8 138 89.2 144.4 172.6l1.4 16.2 6.6 1.2c21.6 4.2 52.6 28.6 64.4 51 12.6 23.6 13.4 29.2 13.4 94.2s-0.8 70.6-13.4 94.2c-11.8 22.4-42.8 46.8-64.4 51l-6.6 1.2-1.4 22.6c-8.4 149.8-100.8 279.4-239.6 336.2-52.4 21.6-119.4 31.8-175.4 26.8zM192 383.8v-106.2l-30.4 0.8c-28.4 0.6-31.2 1-40.6 6-12 6.2-22.8 17.4-29.2 29.6-4.6 8.8-4.8 10.6-5.4 65.8-0.8 69.4 0 72.8 18.4 91.2 16.4 16.4 23.8 18.8 59.8 18.8l27.4 0.2v-106.2zM903 483.6c12-6.2 22.8-17.4 29.2-29.6 4.8-8.8 4.8-9.8 4.8-70s0-61.2-4.8-70c-6.4-12.2-17.2-23.4-29.2-29.6-9.4-5-12.2-5.4-40.4-6l-30.6-0.8v212.8l30.6-0.8c28.2-0.6 31-1 40.4-6zM598.6 100c4.2-2.8 10-8.6 13-12.8 4.8-7 5.4-9.8 5.4-23.2s-0.6-16.2-5.4-23.2c-3-4.2-8.8-10-13-12.8-7.2-5-7.4-5-54.6-5s-47.4 0-54.6 5c-4.2 2.8-10 8.6-13 12.8-4.8 7-5.4 9.8-5.4 23.4 0 14 0.6 16.2 6 24 3.4 4.6 10 10.6 15 13.2 8.8 4.8 10 4.8 54.2 4.2 44.4-0.6 45.2-0.6 52.4-5.6zM389.6 596c-41.8-7.2-73.6-35.2-86.8-76-3-9.4-3.6-21.2-4.4-82.6-1-85.6 0.2-97.6 11.4-120.6 4.4-8.8 11.6-20.2 16-25.2 16-18.2 43-32 68-34.8l12.2-1.4v-22.8c0-19.8 0.6-24.2 4.2-30.6 7.6-13.4 24.6-19.4 39.2-13.8 3 1.2 20.4 16.8 38.6 34.8l33 32.8 60 0.6c59.2 0.8 60.2 0.8 73.8 6 27.8 10.6 46.6 27.8 59.4 54.6 11.2 22.8 12.2 35.2 11.4 120.2-0.8 62-1.4 73.4-4.4 82.8-11.6 36-37 61.4-73.2 73.2-10 3.4-21.2 3.6-130 4-65.4 0.2-123.2-0.4-128.4-1.2zM646 548.2c12.2-6.4 23.2-17.2 29.6-29.2l5.4-10v-164l-4.8-9.8c-6.6-13.2-18.2-24.4-32-31l-11.2-5.2-131-2-54-54v19.8c0 31-3.4 34.4-37.2 35.8-16 0.6-22.2 1.8-31.2 5.8-13.6 6.2-25.2 17.6-31.8 30.8-4.8 9.8-4.8 9.8-5.4 87.6-0.6 93.4-0.6 93.2 18.4 112.2 19.8 19.8 12.2 18.8 154.2 18.4l122-0.4 9-4.8zM411.8 484.2c-9.4-9.6-7.4-26 4.2-32.8 5-3 15.2-3.4 96-3.4s91 0.4 96 3.4c11.6 6.8 13.6 23.2 4.2 32.8l-5.8 5.8h-188.8l-5.8-5.8zM418.8 403.2c-8.2-3.6-12.8-10.4-12.8-19.2 0-9 4.6-15.6 13.2-19.2 9.8-4.2 133.8-4 143.8 0 7 3 13 11.8 13 19.2s-6 16.2-13 19.2c-9.8 4-135 4-144.2 0z" />
<glyph unicode="&#xe907;" glyph-name="instagram" d="M321.8 958c-66-2.8-111.2-11.2-149.4-27.6-35.8-15.4-57-29.6-83.4-55.8-35.6-35.4-57.8-75.2-71.8-128.6-12.4-47.2-15.2-101.4-15.2-298 0-193.4 2.6-248.2 14.2-295.4 28.8-117.4 114.8-192.2 241.4-209.6 36.2-4.8 112.2-7 257.4-7 135 0 212.8 2 247.8 6.2 71.6 8.4 127.6 33.2 171.8 75.6 49.8 48 76.2 105.4 85.8 187.2 3.8 32 3.8 458.8 0 489-7.8 61.2-26 111.6-54.8 150.2-14.2 19.2-44.6 48.2-63.6 61.2-43 29-94.8 45-163 50.8-32.2 2.6-362.6 4-417.2 1.8zM754.4 861.4c57-8.4 89-22.6 119.8-53.2 20-20 31-37.6 40.8-64.8 16.4-46 18-70.4 18-296.4 0-130.2-0.8-192.8-2.6-213.8-5.8-69.4-19.6-106.8-52-141.4-33.8-36-76-53.8-141.4-59.8-35.4-3.4-328-5-395.4-2.2-30.4 1.2-62.2 3.2-70.8 4.4-37.8 5.2-74.4 18.6-97.2 35.2-14.2 10.6-37 35.4-45.4 49.4-16.8 28-26.8 67.4-30.2 117.4-6 90.8-4 402.4 2.8 454 7.2 53.4 23.8 89.4 55.2 119.8 34.4 33.4 79.6 49.6 149.6 54 15.2 0.8 117.4 1.4 227.4 1 170.6-0.4 203.2-0.8 221.4-3.6zM760.4 776c-22.6-11.4-33.4-29-33.4-55 0-18.8 4.4-30 17.2-42.8 12.8-12.6 24-17.2 42.8-17.2 13.4 0 17.8 0.8 27.4 5.6 20.2 10 31.6 27.4 33.2 50.6 1.4 20.6-3.2 32.6-17.4 47-13.2 13.2-24.8 17.8-44.2 17.8-10.8 0-15.6-1.2-25.6-6zM467.2 706.8c-52.6-9.6-99.2-34.2-138.4-73.6-52-51.8-77-112.4-77-185.2 0-44 8.2-80.2 26.4-116.6 56-111.2 179.2-168.2 299-138.4 47.2 11.8 83.6 32.2 119 66.4 31.8 30.8 53.2 64.4 66.6 104.6 9.6 29 13.2 51.4 13.2 84 0 32.4-3.6 55-13 83.4-12.8 38.4-31.4 68.8-60.4 98.8-39.6 40.8-89 67.2-143.4 76.8-22.2 3.8-70.4 3.8-92-0.2zM546.4 615.2c91.6-17.6 152.4-107.6 134.8-199.8-10.8-55.8-51.8-105.4-104.2-125.6-25.6-10-40.4-12.4-70-11.2-21 0.8-29.2 2-43 6.4-60.6 19.2-104.8 68.2-117.2 129.8-4.8 23.8-3 60.8 4.2 83.2 18.8 59.6 69 105 128.8 117 17.8 3.6 48.6 3.6 66.6 0.2z" />
<glyph unicode="&#xe908;" glyph-name="right" d="M235.8 741.4c-12.8-6.8-20.4-18.6-21.4-33.2-1.6-22.4-6.6-16.6 120.2-143.6l116.4-116.6-116.4-116.6c-126.8-127-121.8-121.2-120.2-143.6 1.6-22 18.6-37.8 41.2-37.8 5.8 0 14 1.4 18 3.4 8.4 3.6 262.8 256 273 270.6 7.2 10.4 9.4 26.6 5.4 39.2-2 6.4-28.4 33.8-135.8 141.4-89.2 89.4-135.8 134.8-141.4 137.4-11.4 5.6-27.6 5.4-39-0.6zM497 740.2c-20.8-9.6-30.6-34.6-22-55.8 2.2-5.2 38.4-42.6 117.6-121.8l114.4-114.6-116.2-116.4c-127-127.2-122-121.4-120.4-143.8 1.6-22 18.6-37.8 41.2-37.8 5.8 0 14 1.4 18 3.4 4.8 2 55.4 51 139 134.4 100.8 100.6 132.6 133.6 136.4 141 5.8 11.6 6.4 23.8 2 34.8-4.4 10.2-264.6 271.2-276 276.6-10.2 4.8-23.8 4.8-34 0z" />
<glyph unicode="&#xe909;" glyph-name="right-down" d="M676 681.6c-6.6-3.4-10.2-7-13.4-13.6l-4.6-8.8v-312.2l-156.4 156.2c-86.2 86-158.6 157.4-161 158.6-7 3.6-20.4 2.6-28.6-2-13.2-7.6-20.2-27.8-13.8-40.4 1.2-2.4 72.6-74.8 158.6-160.8l156.2-156.6h-312.2l-8.8-4.6c-6.6-3.2-10.2-6.8-13.6-13.4-7.8-15.2-4-30.2 10.4-40.8 5.4-4.2 7-4.2 207.6-4.8l202-0.4 7.6 4.2c4.2 2.4 9.4 7.6 11.8 11.8l4.2 7.6-0.4 202c-0.6 200.6-0.6 202.2-4.8 207.6-10.6 14.4-25.6 18.2-40.8 10.4z" />
<glyph unicode="&#xe90a;" glyph-name="top-right" d="M327.8 957.2c-31-8.4-52.2-35.8-52.2-68.2-0.2-27.6 14.6-51 40-63.4l13.4-6.6 451.8-1-384.2-384.6c-432.6-433-395.6-393-395.6-426.4 0-15.8 0.8-19.4 5.8-29.8 7.4-15.2 19.2-27 34.4-34.4 10.4-5.2 13.8-5.8 29.8-5.8 33.6 0.2-8-38.4 425.4 394.8l385.6 385 0.4-225.8 0.6-226 5.4-11.4c6.8-14.8 19.6-28.2 32.4-34.6 37.4-18.2 79-3.4 96.8 34.6l5.4 11.4 0.6 315.8c0.6 350.8 1.4 327.2-12.8 348.8-8.4 12.8-26.4 25.2-41 28.2-15.2 3.4-629.6 2.8-642-0.6zM972.8 940c14.6-5.6 27.8-19.8 32.2-34.4 2.8-9.6 3-44 2.6-324.8l-0.6-313.8-4.4-8.2c-11.2-21-27.6-31.4-49.6-31.4-22 0.2-38.4 10.4-49.6 31.4l-4.4 8.2-0.6 237.4c-0.4 234.4-0.6 237.6-4.4 239.6-2.6 1.4-5.2 1.4-7.4 0.2-2-1-179.2-177.8-394-392.8-369-369.6-391-391.2-401.6-395.2-21-8-42.4-3.4-58.4 12.2-15.2 14.8-20.2 36.2-13.4 56.8 3 9 33.4 40 397 403.8 216.6 216.8 393.8 395 393.8 396.2 0 1-1.2 3.6-2.4 5.4-2.4 3.2-20.2 3.4-239.6 3.8l-237 0.6-8.2 4.4c-13.2 7-20.2 14-26 26-15.2 30.8 2.6 68.8 35.8 76.6 3.6 1 146.6 1.6 317.8 1.8 308.4 0.2 311.6 0.2 322.4-3.8z" />
<glyph unicode="&#xe90b;" glyph-name="menu" d="M128 789v-43h768v86h-768v-43zM128 448v-42h768v84h-768v-42zM427.4 148.6c-0.8-0.6-1.4-20-1.4-43v-41.6h470v86h-233.6c-128.6 0-234.4-0.6-235-1.4z" />
<glyph unicode="&#xe90c;" glyph-name="left-arrow" d="M748.625 956.125c11.090-6.525 20.212-15.175 29.375-24.125 1.743-1.642 3.486-3.285 5.281-4.977 17.862-17.194 29.006-31.613 31.469-56.648-0.917-27.463-20.463-44.404-38.632-62.498-1.539-1.541-3.078-3.082-4.664-4.669-5.12-5.124-10.248-10.24-15.375-15.356-3.687-3.687-7.374-7.374-11.060-11.061-7.917-7.918-15.838-15.833-23.762-23.745-11.456-11.44-22.906-22.885-34.355-34.331-18.579-18.574-37.162-37.144-55.748-55.711-18.047-18.028-36.091-36.059-54.133-54.092-1.113-1.113-2.227-2.226-3.374-3.373-5.586-5.584-11.173-11.167-16.759-16.751-46.29-46.269-92.586-92.531-138.888-138.787 2.705-6.037 5.717-10.209 10.399-14.863 1.988-1.991 1.988-1.991 4.017-4.022 1.46-1.442 2.92-2.883 4.425-4.369 1.548-1.544 3.096-3.089 4.691-4.68 5.206-5.189 10.427-10.364 15.647-15.54 3.729-3.712 7.457-7.424 11.184-11.138 8.037-8.005 16.081-16.003 24.129-23.998 12.728-12.644 25.437-25.308 38.142-37.975 4.349-4.335 8.698-8.671 13.048-13.006 1.087-1.083 2.174-2.167 3.294-3.283 12.373-12.332 24.751-24.66 37.13-36.985 1.132-1.127 2.263-2.253 3.429-3.414 18.323-18.243 36.658-36.475 54.996-54.704 18.838-18.727 37.656-37.473 56.458-56.235 11.591-11.565 23.198-23.114 34.825-34.642 7.975-7.909 15.931-15.836 23.873-23.778 4.578-4.576 9.166-9.141 13.772-13.69 5.003-4.944 9.974-9.919 14.939-14.902 1.447-1.415 2.893-2.83 4.384-4.287 13.274-13.446 22.359-28.396 23.351-47.607-0.694-25.529-15.333-41.166-32.697-58.449-2.931-2.929-5.816-5.898-8.701-8.871-12.897-13.071-23.936-21.957-42.352-24.695-37.491 0.040-56.352 22.795-81.487 47.956-1.814 1.808-3.627 3.615-5.496 5.478-4.976 4.96-9.945 9.925-14.913 14.892-5.382 5.378-10.769 10.75-16.155 16.123-11.744 11.717-23.481 23.442-35.217 35.169-7.335 7.33-14.672 14.658-22.009 21.986-20.342 20.318-40.682 40.637-61.015 60.963-1.947 1.946-1.947 1.946-3.933 3.932-1.301 1.3-2.602 2.601-3.942 3.941-2.636 2.635-5.271 5.27-7.907 7.905-1.307 1.307-2.615 2.614-3.962 3.96-21.209 21.201-42.432 42.389-63.661 63.571-21.83 21.783-43.649 43.577-65.457 65.382-12.231 12.229-24.466 24.453-36.714 36.665-10.421 10.39-20.832 20.791-31.229 31.205-5.3 5.308-10.605 10.611-15.923 15.901-5.774 5.744-11.524 11.511-17.273 17.28-1.671 1.655-3.342 3.31-5.064 5.015-15.673 15.807-28.639 31.358-29.649 54.433 0.527 15.551 3.963 27.231 14.673 38.779 1.617 1.745 3.233 3.49 4.899 5.288 8.029 8.433 16.177 16.735 24.408 24.971 1.884 1.892 3.768 3.785 5.651 5.677 5.119 5.143 10.245 10.28 15.371 15.415 5.55 5.562 11.093 11.129 16.638 16.695 13.352 13.4 26.713 26.791 40.076 40.18 3.777 3.785 7.554 7.569 11.331 11.354 23.491 23.541 46.985 47.080 70.489 70.608 5.428 5.433 10.855 10.867 16.283 16.3 1.349 1.35 2.698 2.701 4.087 4.092 21.886 21.911 43.751 43.843 65.608 65.783 22.471 22.556 44.962 45.094 67.47 67.613 12.625 12.632 25.242 25.273 37.838 37.934 10.716 10.772 21.449 21.527 32.204 32.26 5.483 5.473 10.958 10.954 16.412 16.457 5.917 5.97 11.872 11.901 17.832 17.829 2.564 2.606 2.564 2.606 5.18 5.265 19.931 19.67 45.46 29.418 72.799 16.999z" />
<glyph unicode="&#xe90d;" glyph-name="right-arrow1" d="M326.625 956.125c18.363-11.202 33.365-27.818 48.479-42.948 2.72-2.711 2.72-2.711 5.496-5.478 4.976-4.96 9.945-9.925 14.913-14.892 5.382-5.378 10.769-10.75 16.155-16.123 11.744-11.717 23.481-23.442 35.217-35.169 7.335-7.33 14.672-14.658 22.009-21.986 20.342-20.318 40.682-40.637 61.015-60.963 1.947-1.946 1.947-1.946 3.933-3.932 1.301-1.3 2.602-2.601 3.942-3.941 2.636-2.635 5.271-5.27 7.907-7.905 1.307-1.307 2.615-2.614 3.962-3.96 21.209-21.201 42.432-42.389 63.661-63.571 21.83-21.783 43.649-43.577 65.457-65.382 12.231-12.229 24.466-24.453 36.714-36.665 10.421-10.39 20.832-20.791 31.229-31.205 5.3-5.308 10.605-10.611 15.923-15.901 5.774-5.744 11.524-11.511 17.273-17.28 2.507-2.483 2.507-2.483 5.064-5.015 15.673-15.807 28.639-31.358 29.649-54.433-0.527-15.551-3.963-27.231-14.673-38.779-1.617-1.745-3.233-3.49-4.899-5.288-8.029-8.433-16.177-16.735-24.408-24.971-1.884-1.892-3.768-3.785-5.651-5.677-5.119-5.143-10.245-10.28-15.371-15.415-5.55-5.562-11.093-11.129-16.638-16.695-13.352-13.4-26.713-26.791-40.076-40.18-3.777-3.785-7.554-7.569-11.331-11.354-23.491-23.541-46.985-47.080-70.489-70.608-5.428-5.433-10.855-10.867-16.283-16.3-2.023-2.025-2.023-2.025-4.087-4.092-21.886-21.911-43.751-43.843-65.608-65.783-22.471-22.556-44.962-45.094-67.47-67.613-12.625-12.632-25.242-25.273-37.838-37.934-10.716-10.772-21.449-21.527-32.204-32.26-5.483-5.473-10.958-10.954-16.412-16.457-5.917-5.97-11.872-11.901-17.832-17.829-1.71-1.737-3.419-3.475-5.18-5.265-13.996-13.813-26.903-22.021-47.049-21.999-24.475 0.782-38.182 12.565-55.125 29.125-1.913 1.812-3.826 3.625-5.797 5.492-16.772 16.079-29.625 30.879-30.953 55.008 0.816 28.185 19.935 45.003 38.632 63.623 1.539 1.541 3.078 3.082 4.664 4.669 5.12 5.124 10.248 10.24 15.375 15.356 3.687 3.687 7.374 7.374 11.060 11.061 7.917 7.918 15.838 15.833 23.762 23.745 11.456 11.44 22.906 22.885 34.355 34.331 18.579 18.574 37.162 37.144 55.748 55.711 18.047 18.028 36.091 36.059 54.133 54.092 1.67 1.669 1.67 1.669 3.374 3.373 5.586 5.584 11.173 11.167 16.759 16.751 46.29 46.269 92.586 92.531 138.888 138.787-2.705 6.037-5.717 10.209-10.399 14.863-1.325 1.327-2.651 2.655-4.017 4.022-1.46 1.442-2.92 2.883-4.425 4.369-1.548 1.544-3.096 3.089-4.691 4.68-5.206 5.189-10.427 10.364-15.647 15.54-3.729 3.712-7.457 7.424-11.184 11.138-8.037 8.005-16.081 16.003-24.129 23.998-12.728 12.644-25.437 25.308-38.142 37.975-4.349 4.335-8.698 8.671-13.048 13.006-1.087 1.083-2.174 2.167-3.294 3.283-12.373 12.332-24.751 24.66-37.13 36.985-1.132 1.127-2.263 2.253-3.429 3.414-18.323 18.243-36.658 36.475-54.996 54.704-18.838 18.727-37.656 37.473-56.458 56.235-11.591 11.565-23.198 23.114-34.825 34.642-7.975 7.909-15.931 15.836-23.873 23.778-4.578 4.576-9.166 9.141-13.772 13.69-5.003 4.944-9.974 9.919-14.939 14.902-2.17 2.122-2.17 2.122-4.384 4.287-13.274 13.446-22.359 28.396-23.351 47.607 0.694 25.529 15.333 41.166 32.697 58.449 2.931 2.929 5.816 5.898 8.701 8.871 20.751 21.031 45.943 33.050 75.359 19.688z" />
<glyph unicode="&#xe90e;" glyph-name="quotation" d="M0 628v-234h268v-43.4c0-24-1-47.4-2-52.2-7.6-32.2-35.2-57.8-68.2-62.4-7-1-35.6-2-63.2-2h-50.6v-200.6l66.6 1.2c48.2 0.8 71 1.8 83.4 4.2 116.6 21.8 201.6 104 228.4 220.8l4.4 19.4 0.6 291.6 0.8 291.4h-468.2v-234zM556 628v-234h268v-43.4c0-24-1-47.4-2-52.2-7.6-32.2-35.2-57.8-68.2-62.4-7-1-35.6-2-63.2-2h-50.6v-200.6l66.6 1.2c48.2 0.8 71 1.8 83.4 4.2 116.6 21.8 201.6 104 228.4 220.8l4.4 19.4 0.6 291.6 0.8 291.4h-468.2v-234z" />
<glyph unicode="&#xe90f;" glyph-name="high-quality" d="M488 919.2c-17.2-4.8-27.2-10.8-63-37.4-45.2-33.4-54.2-38.8-70.6-42.6-7.4-1.6-33.2-4-57.4-5.2-63.4-3.4-79.2-8.2-103.2-32-18.4-18.2-23-29.4-36.4-86.4-16-67.8-12.6-62.2-78.4-125.6-30.2-29-38-40-44-63-7.4-29-3.2-46.6 24.8-102.6 12-24 23.2-48.4 25-54.4 4.4-14.6 4-30.2-1.8-77-2.8-22-5-45-5-51 0-34.8 21.8-70 53.8-86.6 7.2-3.8 28.6-13.4 47.2-21.4 38.2-16 48-21.4 59.4-31.6 4.2-3.8 20.6-26.4 36.2-50.2 36.2-54.6 49.6-67 80.4-75.2 24.8-6.4 36.6-4.6 98 14.6 35 11 36.6 11.2 59 11.2 22.8 0 23.6-0.2 67-13.6 60-18.6 78.4-19.6 108.2-5.4 20 9.4 32.2 23 63.4 70.2 35.8 54.2 37.6 55.6 90.2 78.2 21 8.8 44.2 19.4 51.4 23.2 28 14.4 48 42.6 52.4 73.4 1.8 13 1.4 21.4-3.2 61.6-6 50.2-6.6 64-3.4 76.6 1.2 4.4 13 30 26 57 19.4 39.8 24.4 51.8 26.4 63.4 3.4 20.6 0.2 40.4-9.4 60.2-6.6 13.6-11 18.6-35.8 42.4-65.6 62.8-62.6 58-78.2 123.6-6 25-12.2 49.4-14 54.4-7.4 20.6-27.4 43-47.6 52.8-17 8.4-32 10.8-78.4 13.2-45.6 2.4-63.6 5.2-76.8 11.8-4 2.2-24.6 16.6-45.4 32.2-39.4 29.4-51.2 36.4-69 41-13 3.6-35.4 3.6-47.8 0.2zM555.6 771.8c23-2.8 57.8-11.8 79.4-20.6 108.2-44.6 185.2-143.8 201-259.4 3-21.6 3-66 0-87.6-14.8-108.2-83-202.6-180.8-250-38.8-18.8-77.2-29-119-31.8-133.8-9-255.8 59.8-316.4 178.8-38.8 76.4-45.2 175-16.4 255.8 18.2 51.2 53 102.2 93.2 136.8 73.4 63.2 161.4 89.6 259 78zM490 741.8c-136.4-9.8-247.2-111.8-269.2-247.8-4-24.4-4-67.6 0-92 20.8-128.6 120.8-227 250-246 22-3.2 64.6-2.8 87.2 0.8 136 22 237.8 132.8 247.8 269.6 13 180-135.6 328.4-315.8 315.4zM667 575.2c12-5.6 15.4-9.2 21.2-22.2 5-11.2 4.4-26-1.2-37-5.4-10.6-186.6-192-196-196.2-9.2-4.2-20.4-4.8-32-1.6-6.6 1.8-17.4 11.6-62.6 56.6-30 29.8-56.4 57-58.6 60.6-5 8-6.8 23.2-4 33.6 2.8 10.6 13 22.6 23 27.2s26.8 4.8 36.8 0.8c4.6-2 21-16.8 43.6-39.2l36-36 74.6 75.4c52.8 53.2 77 76.2 82.8 79 11.4 5 24.2 4.8 36.4-1z" />
<glyph unicode="&#xe910;" glyph-name="location" d="M126 957c-32.2-6.4-57-20-81-44-20.2-20.2-30.6-36.4-38.4-60-4.6-14-5.2-19.2-5.2-42 0-42.8-6-30.2 108.8-229 41.6-71.8 42.8-73.2 55.4-68.8 5.6 2 14.2 16.4 112.6 187.6 33 57.4 39 72.2 41 101 3 42.4-13.6 83.2-46.8 114.6-23 21.6-48.8 34.8-80 40.8-18 3.4-48.8 3.4-66.4-0.2zM178 860.8c7.8-2.4 13.2-5.8 20.8-13.4 22.8-23 22.8-55.8 0.2-78.4s-55.4-22.6-78.4 0.2c-22.2 22.2-22.2 55.4 0.4 77.8 15.6 15.8 34.8 20.4 57 13.8zM469 583c-6-5.8-6.6-14.8-1.4-20.6 1.8-2.2 9.2-5.8 16.4-8s15.8-5.2 19.2-6.6c13.2-5.2 26.2 7.2 21 19.8-2.8 6.8-9 10.6-26 16.2-16.8 5.6-23.2 5.4-29.2-0.8zM377.6 576.8c-16.4-5.2-23.6-11.4-23.6-20.2 0-6.6 8.4-14.6 15.4-14.6 8.8 0 40.4 11.2 43.6 15.2 4.4 5.8 3.6 15.4-1.6 20.4-6 5.8-14.4 5.6-33.8-0.8zM273 536.8c-9.8-3.6-19.2-8.2-20.4-10.2-4.2-5.6-3.2-15.4 2-20.2 6.4-6 14-5.6 33.2 1.8 24 9.2 29.8 18.6 18.4 30-7.4 7.2-10.8 7.2-33.2-1.4zM557 519c-2.8-2.6-5-7-5-9.6 0-6.4 17.2-38.6 22.6-42.4 10-7 23.4 0.2 23.4 12.6 0 8.2-13.4 35-20.4 41-5.8 5-14.8 4.4-20.6-1.6zM588.6 415.6c-6-3-8.2-9.8-9.6-32-1.4-19-1.2-19.6 3.8-24.6 6-6 14.8-6.6 21.2-1.4 5 4 7.6 16.2 7.8 36.8 0.2 14.2-0.8 17-8 20.6-6.4 3.4-9.2 3.6-15.2 0.6zM837.6 382c-16.8-2.8-32.4-8.2-49.6-17.2-66.8-34.4-98.4-105-77-172.4 5-16 12.4-29.2 103.2-186.4 31.8-54.8 39.8-67.2 44.4-68.8 12.4-4.4 13.6-3 55.2 68.8 114.4 197.8 108.8 186.2 108.8 229 0 22.8-0.6 28-5.2 42-7.4 22.2-17.8 39-35.4 56.8-37.6 38.4-93 56.8-144.4 48.2zM882 284.8c7.8-2.4 13.2-5.8 20.8-13.4 22.8-23 22.8-55.8 0.2-78.4s-55.4-22.6-78.4 0.2c-22.2 22.2-22.2 55.4 0.4 77.8 15.6 15.8 34.8 20.4 57 13.8zM570.4 301.4c-3-3.2-5.2-10-7.6-25-3.4-20.2-3.4-20.6 0.6-26 5.4-7.2 18-8.6 23.6-2.4 4.8 5.4 11.6 42 9 49-3.6 9.6-18.2 12.2-25.6 4.4zM559.8 190.2c-4.2-4.2-5.8-7.8-5.8-12.6 0.2-12.4 4-34.4 7-39 6.2-9.2 21-8.4 26 1.4 2.6 5 2.8 8.6 0.8 24.4-2.6 21.6-4.4 26.4-11.2 29.4-7.4 3.4-10.4 2.8-16.8-3.6zM599 89.8c-15.6-8.8-10.6-25 13.6-44 12.2-9.6 21-10.4 27.2-2.6 7.4 9.6 5.8 14.4-11.2 31.2-16 15.8-22.6 19.2-29.6 15.4zM689 29c-5.8-5.6-6.4-14-2-20.4 3.8-5.4 39.4-17.4 46.4-15.6 6.4 1.6 12.6 8.8 12.6 15 0 9.6-5 13.6-25.8 20-23.8 7.2-25 7.4-31.2 1z" />
<glyph unicode="&#xe911;" glyph-name="excellence" d="M422.8 828.4c-11.4-5.4-20.8-15.8-34.8-38.4-6.6-10.8-14.6-21.8-17.8-24.6-3.4-2.8-12.8-6.6-22.6-9.2-39.6-10.4-43.4-12-53.6-21.8-13.4-13-14.8-19.6-13-57.6 1.6-36 1.4-36.2-21.2-62.8-32-37.6-32-56.4 0-94 22.6-26.6 22.8-26.8 21.2-62.8-1.8-37.8-0.2-44.6 13-57.4 9.2-9 16-12.2 37.6-17.8 6.6-1.8 8.4-3 7.6-5.6-14.4-46.2-75.2-253.8-75.2-256.4 0-4.6 6.4-10 12-10 2.8 0 22 13 49.6 33.4 24.8 18.6 46.6 34.6 48.4 36 2.8 2 5-2.6 18-38 28.6-78.8 28-77.4 36.8-77.4 2.6 0 6 1.6 7.8 3.6 1.8 1.8 19.2 57.2 38.8 123 19.4 65.6 36 119.4 36.6 119.4s17.2-53.8 36.6-119.4c19.6-65.8 37-121.2 38.8-123 4.6-5 11.6-4.4 16 1.2 2.2 2.6 12.8 29.2 23.6 59 12.8 34.8 20.6 53.4 22 52.4 1-0.8 22.8-17 48.2-35.8 30.6-22.8 48-34.4 51.2-34.4 5.4 0 11.6 5.6 11.6 10.4 0 2.2-62 213.2-75.2 256-0.8 2.6 1 3.8 7.6 5.6 21.6 5.6 28.4 8.8 37.6 17.8 13.2 12.8 14.8 19.6 13 57.6-1.6 36-1.8 35.6 20.4 61.6 33 39 33 57 0 96-22.2 26-22 25.6-20.4 61.6 1.8 38.2 0.4 44.8-13 57.8-10.2 9.8-14 11.4-53.6 21.8-9.8 2.6-19.2 6.4-22.6 9.2-3.2 2.8-11.2 13.8-18 24.6-27.6 45-43.2 50.4-90 30.8-30.6-12.6-35.8-12.6-66.8 0-28.6 11.6-43.4 13.6-56.2 7.6zM470.6 798.2c10.4-4.2 24-9 30.2-10.4 14.2-3.2 24.8-1 54.6 11.2 36.4 15 37.4 14.6 64.6-28.6 17.2-27.2 23.8-31.2 73-43.6 10.2-2.6 15.8-5.2 20.6-10l6.6-6.6-1.2-73.2 5.6-10c3-5.4 10.6-15.8 16.6-23 15.8-18.2 22.8-29.8 22.8-37s-7-18.8-22.8-37c-6-7.2-13.6-17.4-16.6-23l-5.6-10 1.2-73.2-6.6-6.6c-5.2-5-10.4-7.4-23.6-10.8-46.8-12-52.8-15.8-70-42.8-17.6-28-20.6-31.8-26.2-34.8-8.6-4.4-14.6-3.4-36.4 5.4-44.6 18-46.2 18-90.8 0-34.6-14-35.4-13.6-62.6 29.4-17.2 27-23.2 30.8-70 42.8-13.2 3.4-18.4 5.8-23.6 10.8l-6.6 6.6 1.2 73.2-5.6 10.2c-3.2 5.6-10.8 16-16.8 23-15.2 17.4-22.6 29.4-22.6 36.8 0 7.2 7 18.8 22.8 37 6 7.2 13.6 17.6 16.6 23l5.6 10-1.2 73.2 6.6 6.6c4.8 4.8 10.4 7.4 20.6 10 49.2 12.4 55.8 16.4 73 43.6 17.4 27.6 20.6 31.8 25.8 34.8 7.4 4.2 18.8 2.2 40.8-7zM373.4 365.2c3.4-3.6 10.6-14.4 16.2-23.6 24.2-39.8 42.6-47 81.2-31.8 8.6 3.6 16 6 16.2 5.8 0.6-0.8-58-197.2-59.2-198.4-0.6-0.6-8.4 19.4-17.6 44.4s-17.6 46.4-18.8 47.6c-7 7-10 5.6-51.6-25-22.4-16.6-40.8-29.8-41-29.6-1.4 1.4 64.6 217.4 66.4 217.4 1.4 0 5-3 8.2-6.8zM693.4 263.6c17.8-59.8 32-108.8 31.8-109.2-0.4-0.2-17.2 12-37.4 27.2-44.8 33.6-44.2 33.4-51.2 30-4.6-2.2-7.6-8.8-22.4-49-9.4-25.6-17.4-46-18-45.4-1.2 1.2-59.8 197.6-59.2 198.4 0.2 0.2 7.6-2.2 16.2-5.8 38.6-15.2 57-8 81.2 31.8 11.2 18.4 20.6 30.4 24.4 30.4 1.4 0 15.8-45.2 34.6-108.4zM477 723.2c-57.2-13-103-57-119.4-114.6-6.4-22.2-6.4-61 0-83.2 15-52.4 52-91.6 104-110.2 16.8-6 18.6-6.2 50.4-6.2s33.6 0.2 50.4 6.2c52 18.6 89 57.8 104 110.2 6.4 22.2 6.4 61 0 83.2-15 52.4-52.4 92-104 110-15.6 5.4-20.2 6.2-45.4 6.6-18.6 0.6-32-0.2-40-2zM555.6 695.4c21.4-7.4 35.4-16.4 52.4-33.4 16.2-16.2 28.6-36.8 35.2-59 5-16.6 5-55.4 0-72-13.2-43.8-48.2-80.2-90.2-93.6-20.2-6.4-61.8-6.4-82 0-32 10.2-63.2 36.4-78.4 65.6-12.6 24.6-15.4 36.2-15.4 64 0 27.6 2.8 39.6 15 63.2 17.4 33.6 50.2 59.4 87.6 68.8 7.6 2 19.4 2.6 36.2 2.2 20.8-0.4 27.4-1.4 39.6-5.8zM503.4 660c-1.6-2.4-7.6-14.8-13.4-27.8l-10.4-23.6-19.8-2.4c-11-1.2-22.6-2.2-26-2.2-6.4 0-13.8-3-16.2-6.8-4.2-6-0.8-11 20.2-31.2l21.8-21-6-26.6c-6.6-29.4-6.2-35.2 3.4-37.6 4-1 10.4 1.8 30 13.2l25 14.4 25-14.4c19.6-11.4 26-14.2 30-13.2 9.6 2.4 10 8.2 3.4 37.6l-6 26.6 21.8 21c22.6 21.6 25.2 26.2 18.6 32.8-3.8 4-6.4 4.4-35.8 7.2-13.2 1.4-24.2 2.6-24.4 2.8s-5 10.6-10.6 23.2c-5.6 12.6-11.6 25-13.2 27.6-3.8 5.8-13.4 6-17.4 0.4zM519 606.6c8.8-21.2 8.2-20.6 36-23.8l12-1.2-13.4-12.4c-15.2-14-15.6-15.2-10.6-37 1.8-7 2.6-13.2 2.2-13.8-0.6-0.4-7.4 2.8-15 7.4-7.6 4.4-15.8 8.2-18.2 8.2s-10.6-3.8-18.2-8.2c-7.6-4.6-14.4-7.8-15-7.4-0.4 0.6 0.4 6.8 2.2 13.8 5 21.6 4.6 22.8-10.4 36.8l-13.4 12.6 11.8 1.2c27.8 3 27.2 2.6 36 23.8 3 7.4 6.2 13.4 7 13.4s4-6 7-13.4z" />
<glyph unicode="&#xe912;" glyph-name="leader" d="M491 862.2c-41.6-9-72.2-37-86.2-78.2-2.8-8-3.8-16.8-3.8-32 0-21.6 2.6-33.4 11.4-50.6 2.2-4.4 3.4-8.2 3-8.6-1.4-1.4-25.8 11.8-41 22-7.4 5-40.4 32.2-73.4 60.4-33.4 28.6-64 53-69 55.4-10.8 5-29.8 5.4-40.2 1-10-4.4-21.2-14.8-26.4-24.4-6.2-11.6-6.2-35 0.2-46.2 2.4-4.4 52.4-56.6 111.4-116l106.8-108 0.2-36.4v-36.6h32v87l-108.8 109c-59.8 60-110.2 111.2-112 114-9.6 14.6 5.4 34.2 21.6 28 3-1 31-23.8 62.2-50.4 31.4-26.4 62-52 68.2-56.8 93.2-69.6 221.2-72.8 318.6-7.8 7.2 4.8 41.2 32.4 75.6 61.6s64.6 53.4 67.4 54.2c6.6 1.6 13.8-1.4 19-8 5-6.4 5.4-14.2 1-20.8-1.8-2.8-52.2-54-112-114l-108.8-109v-87h32v36.6l0.2 36.4 106.8 108c59 59.4 109 111.6 111.4 116 6.4 11.2 6.4 34.6 0.2 46.2-5.2 9.6-16.4 20-26.4 24.4-10.4 4.4-29.4 4-40.2-1-5-2.4-35.6-26.8-68-54.6-64.2-54.8-75.4-63.4-98-75.8-18.6-10-21.2-10.4-16-1.6 11.4 19.2 16.2 48.6 12.2 72.6-5.2 29.6-26.6 61.6-51.2 76-23 13.4-57.2 19.8-80 15zM544.8 824.4c18.2-8.4 29.8-20 38.8-38 7-14.4 7.4-16.2 7.4-34.4s-0.4-20-7.4-34.4c-9-18.2-20.6-29.4-39.2-38.2-12.2-5.8-15.2-6.4-32.4-6.4s-20.2 0.6-32.4 6.4c-18.6 8.8-30.2 20-39.2 38.2-7 14.4-7.4 16.2-7.4 34.2 0 17.4 0.6 20.4 6.4 32.6 8 17 19.4 29.4 34.4 37.2 15.6 8.4 24.4 10.4 42.6 9.6 12.2-0.6 18.4-2.2 28.4-6.8zM187 494.2c-41.6-9-72.2-37-86.2-78.2-5.2-15.4-5.2-48.8 0-64 5.4-16 10.6-25.6 20.4-38.2l8.6-11.2-9.2-1.4c-5.2-0.6-16.6-4.8-25.6-9-30.6-14.8-55-46.6-60.8-79-1.2-6.6-2.2-29.8-2.2-51.8v-39.8l6.2-5.8c25.2-23.4 102.4-37.8 188.8-35 34.6 1 75.8 5.2 78.4 8 1 1-2.8 26.8-4.4 29.2-0.4 0.8-8.8 0.2-18.4-1.4-9.6-1.4-34.6-3-55.6-3.8-60.6-2.2-114.4 4-147.8 16.8l-14.2 5.6v76l7.4 15.2c9 18.2 20.6 29.4 39.2 38.2l13.4 6.4h166.2l15.2-7.6c10.2-5 18.2-10.8 24-17.2l8.6-9.6 12.4 8.2c7 4.6 12.6 9.2 12.6 10.6 0 1.2-5.8 8.2-12.8 15.4-14.2 14.4-38.6 27.8-55.8 30.6l-9.6 1.6 6.8 8c29.4 34.6 35.2 81 15.4 122.2-17.8 37-53.4 60.2-95 61.8-9.8 0.4-21.6 0-26-0.8zM240.8 456.4c18.2-8.4 29.8-20 38.8-38 7-14.4 7.4-16.2 7.4-34.4s-0.4-20-7.4-34.4c-9-18.2-20.6-29.4-39.2-38.2-12.2-5.8-15.2-6.4-32.4-6.4s-20.2 0.6-32.4 6.4c-18.6 8.8-30.2 20-39.2 38.2-7 14.4-7.4 16.2-7.4 34.2 0 17.4 0.6 20.4 6.4 32.6 8 17 19.4 29.4 34.4 37.2 15.6 8.4 24.4 10.4 42.6 9.6 12.2-0.6 18.4-2.2 28.4-6.8zM795 494.2c-41.6-9-72.2-37-86.2-78.2-5.2-15.4-5.2-48.8 0-64 5.2-15.6 10.4-25.4 19.4-37.2 4.4-5.6 7.8-10.6 7.8-11.2s-4-1.8-9-2.4c-15.4-2.4-39.6-16-54-30.4-7.2-7.2-13-14-13-15.4s5.6-6 12.6-10.6l12.4-8.2 8.6 9.6c5.8 6.4 13.8 12.2 24 17.2l15.2 7.6h166.2l13.4-6.4c18.6-8.8 30.2-20 39.2-38.2l7.4-15.2v-76l-14.2-5.6c-33.4-12.8-87.2-19-147.8-16.8-20.8 0.8-46 2.4-55.6 3.8-9.6 1.6-18 2.2-18.4 1.4-1.6-2.4-5.4-28.2-4.4-29.2 0.6-0.6 10.4-2.6 21.8-4.4 30.4-4.6 122.6-4.6 153.2 0.2 45.4 7.2 78.4 18.4 92.4 31.4l6.4 6-0.8 46.4c-0.8 44-1.2 47.4-5.8 59.8-7.2 19-14 29.6-27 42.6-16.2 16.2-37 27.4-57.4 30.8l-7.6 1.4 6.8 8c29.4 34.6 35.2 81 15.4 122.2-17.8 37-53.4 60.2-95 61.8-9.8 0.4-21.6 0-26-0.8zM848.8 456.4c18.2-8.4 29.8-20 38.8-38 7-14.4 7.4-16.2 7.4-34.4s-0.4-20-7.4-34.4c-9-18.2-20.6-29.4-39.2-38.2-12.2-5.8-15.2-6.4-32.4-6.4s-20.2 0.6-32.4 6.4c-18.6 8.8-30.2 20-39.2 38.2-7 14.4-7.4 16.2-7.4 34.2 0 17.4 0.6 20.4 6.4 32.6 8 17 19.4 29.4 34.4 37.2 15.6 8.4 24.4 10.4 42.6 9.6 12.2-0.6 18.4-2.2 28.4-6.8zM491 446.2c-41.6-9-72.2-37-86.2-78.2-5.2-15.4-5.2-48.8 0-64 5.4-16 10.6-25.6 20.4-38.2l8.6-11.2-9.2-1.4c-5.2-0.6-16.6-4.8-25.6-9-30.6-14.8-55-46.6-60.8-79-1.2-6.6-2.2-29.8-2.2-51.8v-39.8l6.2-5.8c25.2-23.6 102.2-37.8 189.8-35 73.2 2.2 128.6 15.2 150 35.2l6.4 6-0.8 46.4c-0.8 44-1.2 47.4-5.8 59.8-7.2 18.8-14 29.4-26.6 42.4-15.8 15.8-37.4 27.6-57.8 31l-7.6 1.4 6.8 8c29.4 34.6 35.2 81 15.4 122.2-17.8 37-53.4 60.2-95 61.8-9.8 0.4-21.6 0-26-0.8zM544.8 408.4c18.2-8.4 29.8-20 38.8-38 7-14.4 7.4-16.2 7.4-34.4s-0.4-20-7.4-34.4c-9-18.2-20.6-29.4-39.2-38.2-12.2-5.8-15.2-6.4-32.4-6.4s-20.2 0.6-32.4 6.4c-18.6 8.8-30.2 20-39.2 38.2-7 14.4-7.4 16.2-7.4 34.2 0 17.4 0.6 20.4 6.4 32.6 8 17 19.4 29.4 34.4 37.2 15.6 8.4 24.4 10.4 42.6 9.6 12.2-0.6 18.4-2.2 28.4-6.8zM610.4 215.6c18.2-9 29.4-20.6 38.2-39.2 6.4-13.4 6.4-13.6 7-50.8l0.8-37.6-9.8-4.2c-26.6-11.4-63.2-17.4-115.6-19.2-60.8-1.8-114.6 4.4-147.8 17l-14.2 5.6v75.8l6.4 13.4c3.4 7.4 10 17.4 14.4 22.2 8.8 9.6 27 20.2 39.4 23.2 4.4 1 43.2 1.8 87 1.6l79-0.4 15.2-7.4z" />
<glyph unicode="&#xe913;" glyph-name="hand" d="M144 448v-464h608v32h-550.2l-4.8 5-5 4.8v652.4l5 4.8 4.8 5h492.4l4.8-5 5-4.8v-226.4l5.8-7.4c9.6-12.4 10.2-16.6 10.2-81.2v-60.2h16l16-0.2v609.2h-608v-464zM699 875l5-4.8v-140.4l-5-4.8-4.8-5h-492.4l-4.8 5-5 4.8v140.4l5 4.8 4.8 5h492.4l4.8-5zM224 800v-48h448v96h-448v-48zM224 592v-64h128v128h-128v-64zM384 592v-64h128v128h-128v-64zM544 592v-64h128v128h-128v-64zM224 432v-64h128v128h-128v-64zM384 432v-64h128v128h-128v-64zM544 432v-64h79.6l0.8 30.6c0.8 33.2 2.8 40.2 15 51.8 6.6 6.2 21.6 13.4 28.2 13.6 4.2 0 4.4 0.8 4.4 16v16h-128v-64zM663.8 429.4c-7.8-6-7.8-7.4-7.8-143.4v-132.2l-5-4.8c-5.8-6-14.8-6.6-20.6-1.6-2.2 2-12.6 18-23 35.6-16.2 27.4-20.4 32.8-27.4 36.8-16.8 9.4-34.8 0.8-35-16.4 0-7.8 4.6-16.4 44-82l44-73.4h247v105.2c0 76-0.6 106.2-2.4 109.4-5.4 10.4-16.6 12.4-24.6 4.4l-5-4.8v-102.2h-32v102.2l-5 4.8c-6.4 6.6-15.6 6.6-22 0l-5-4.8v-102.2h-32v102.2l-5 4.8c-6.4 6.6-15.6 6.6-22 0l-5-4.8v-102.2h-32v262.2l-5 4.8c-5.2 5.4-14 6.4-19.2 2.4zM224 272v-64h128v128h-128v-64zM384 272v-64h128v128h-128v-64zM544 294v-42l5.6 1.4c3 1 11.2 1.6 18.4 1.6 20.8-0.2 38.4-10.6 52.4-31 3.2-4.8 3.4-2.2 3.4 53.6l0.2 58.4h-80v-42zM224 112v-64h128v128h-128v-64zM384 112v-64h128v128h-128v-64zM544 90.4v-42.4h51.8l-24.2 40.6c-13.2 22.2-25 41.2-25.8 42.4-1 1-1.8-17-1.8-40.6z" />
<glyph unicode="&#xe914;" glyph-name="setup" d="M0 508v-452h477.8l12.8 23.4c8.8 15.8 12.2 24 10.8 25-1.4 0.6-12.2 4-24.4 7.6-12 3.4-29.4 8.6-38.6 11.2l-16.4 5 0.4 79.2 0.6 79.2 39.6 11.4c21.8 6.4 40 12 40.4 12.4 0.2 0.2-8.4 16.8-19.2 36.6s-19.8 37-19.8 38c0 2.6 108.4 111 111 111 1.2 0 18.2-9 38-19.8s36.4-19.4 36.6-19.2c0.4 0.4 6 18.6 12.4 40.4l11.4 39.6 39.4 0.6 39.2 0.4v422h-752v-452zM632 810v-30h-512v60h512v-30zM632 689v-31l-511 1-0.6 28c-0.2 15.2 0 29 0.4 30.4 0.8 2.2 48.8 2.6 256.2 2.6h255v-31zM332 568v-30h-212v60h212v-30zM332 448v-30h-212v60h212v-30zM332 328v-30h-212v60h212v-30zM331 207v-30h-210l-0.6 28c-0.2 15.2 0 29 0.4 30.4 0.8 2.2 21 2.6 105.6 2.2l104.6-0.6v-30zM708 440.6l-11-37.2-19-7.8c-10.4-4.4-20.4-8.4-22.2-8.8-1.6-0.6-18.2 7.2-36.6 17.4l-33.6 18.4-48.2-48.2 18.4-33.6c10.2-18.4 18-35 17.4-36.6-0.4-1.8-4.4-11.8-8.8-22.2l-7.8-19-74.6-22v-68l37.6-10.8 37.4-11 6.2-16c3.4-9 7.4-18.8 8.8-22.2 2.4-5.8 1.6-7.6-16-39.6l-18.6-33.8 48-48 33.4 18.2c18.2 10 34 18.2 34.8 18.2s10.8-4 22.4-8.6l21-8.8 11-37.2 11-37.4h68l10.8 37.6 11 37.4 16 6.2c9 3.4 19 7.4 22.2 8.8 5.8 2.4 7.6 1.8 39.8-16l33.6-18.6 48.2 48.2-18.4 33.4c-10.2 18.4-18.2 34.6-17.8 35.8s4.2 11.2 8.6 22.4l8 20.2 75 21.6v68l-74.6 22-7.8 19c-4.4 10.4-8.4 20.4-9 22.4-0.6 1.8 7 17.6 17.4 36.6l18.6 33.4-24.2 24-24 24.2-33.6-18.6c-32.2-17.6-34-18.4-39.8-16-3.2 1.4-13.2 5.4-22.2 8.8l-16 6.2-11 37.4-10.8 37.6h-68l-11-37.4zM779.4 260.8c36.4-17.4 44.6-67.2 15.8-96-29.2-29-78.2-20.6-96.4 16.4-4.4 9-5.4 14-5.4 25.6 0 45.2 45.2 73.6 86 54z" />
<glyph unicode="&#xe915;" glyph-name="delivery" d="M728.4 782.8l-86.6-37.4 0.8-94.2 0.6-94.2 5.4-18.6c11.6-40.2 28.4-68.2 59.2-98.4 23.8-23.6 44.2-36.8 72.2-47.2 29.6-11 36.6-12 55.2-7 19 5.4 47.8 18.6 64.6 30 41.2 28 74 74.8 87.6 125.6l5.4 19.6 0.8 92.2 0.6 92-85.6 36.8c-47 20.2-87.4 37-89.6 37.4s-43-16.2-90.6-36.6zM919.8 680.8c8-6.6 11.2-17.8 7.8-27.6-3.2-8.6-120.2-127.4-129.6-131.2-13.2-5.4-18.2-2.2-54.4 33.4-22.6 22.6-34.2 35.4-35.8 40-4.4 13.8 2.4 28.4 15.4 32.6 13.6 4.6 19.4 1.6 44.2-22.6l22.8-22.2 51.4 51.4 51.6 51.4h10.2c8.2 0 11.6-1 16.4-5.2zM373.6 682c-4-2.2-9.4-6.8-12-10.4l-4.6-6.6-0.6-260.6-0.4-260.4 241 1 1.4 11.8c3.4 27 21.6 52 46.6 64.4 50.2 24.8 107.6-1.6 122.2-56.2 1.6-5.4 2.8-12.6 2.8-15.6v-5.6l48.6 0.6c55 0.6 59.4 1.8 69 16.2l5.4 8.2 0.6 102.6c0.2 56.4 0.2 102.6-0.2 102.6s-7.6-3.2-16-7c-8.4-3.8-24-9.4-34.8-12.2-23-6.2-33-5.8-58.8 2.4-88.2 27.8-155 103.8-170.6 194.8-2.4 14.2-3.2 32.4-3.2 76.4v57.6h-114.4c-109.4-0.2-115-0.4-122-4zM122.6 569.8c-4.8-2.4-10.8-6.8-13.4-9.8-2.6-3.2-21.2-44.2-41.4-91.4l-36.8-85.6-0.6-34.4-0.6-34.6h20.8c26 0 38-3.4 47.8-13.4 11.6-11.8 13.6-20.4 13.6-56.4 0-38.2-2.2-46.4-15.2-58-11-9.6-20.8-12.2-46.6-12.2-19.6 0-20.2-0.2-20.2-4.4 0-6.2 6.6-16.6 13.4-21 4.4-3 10.6-3.8 33.6-4.2l28.4-0.8 2.2 13.6c7.8 47.6 50.6 79.2 98 72.6 37.4-5.2 67.6-36.2 72.2-73.8l1.2-11h44l0.6 214.6 0.4 214.4h-96.4c-94.2 0-96.8-0.2-105-4.2zM264 453v-55h-77c-42.4 0-77 0.8-77 1.6 0 1.6 42.8 103 45 106.4 0.8 1.2 22.2 2 55.2 2h53.8v-55zM30 243.8v-38.2l22.2 0.8c19.2 0.6 22.6 1.2 25 4.4 2.2 3 2.8 11.2 2.8 33.6 0 38.2 0.6 37.6-29 37.6h-21v-38.2zM168.6 193c-19.2-9.6-29.4-26.4-29.4-48 0-21.8 10.4-38.8 29.8-48.6 26-13 57.8-2.4 71.6 23.6 5.4 10.2 5.8 12.4 5 27.4-0.8 14.6-1.6 17.6-7.6 26.2-3.6 5.4-11 12.8-16.6 16.6-9 6.2-11.6 6.8-26.2 7.4-14.2 0.6-17.4 0-26.6-4.6zM664.4 195.4c-10.4-3.2-25.2-17.8-30.4-29.6-8.4-19.6-3.4-44.2 11.6-59.4 15.4-15.4 41.6-20 60.8-10.6 17.8 8.6 31.6 30 31.6 49.2 0 10.8-5.6 25.8-13 34.4-10.4 12.2-24.6 18.6-40.8 18.4-7.4-0.2-16.2-1.2-19.8-2.4z" />
<glyph unicode="&#xe916;" glyph-name="mail-recipient" d="M136.6 893c-34-9.2-60.8-36.2-69.6-70-4.4-17.6-4.6-476.2 0-493.6 9.4-35.8 39.6-64.6 74.8-71.4 6.8-1.2 74.4-2 183.6-2h173l-1.2-7.4c-5-32-9.2-74.8-8-81.6 4-24.8 18.4-44.8 39.4-54.8 18.2-8.8 25.4-9.2 73-3.2 23.4 2.8 44.4 5 46.6 4.6 3.2-0.4 6.8-7.6 18-36.4 8.2-21.2 16.6-39.6 20.8-45.4 15.4-20.8 44.2-33.4 71.4-31.2 27.2 2.4 54 20.2 65.4 44 2.2 4.6 33.6 103.8 69.6 220.4l65.4 212v18c0 13.8-1.2 20.6-4.4 29-9.6 23.8-27.6 40.4-52.2 48-16.8 5.4-30.2 5-51-1-9.4-2.8-17.6-5-18.2-5s-1 54.4-1 120.8c0 73.6-0.8 124.8-2 131.4-5 25.8-25 53.4-47.6 65.4-24.6 13.2-4.8 12.4-335.4 12.2-251.6 0-301.6-0.6-310.4-2.8zM202.8 798.2c2.6-1.2 51.6-37 108.6-79.6 57-42.8 107.6-79.4 112.6-81.6 12.2-5.4 35.8-5.4 48 0 5 2.2 55.8 39 113 81.8 63.8 47.8 106.8 78.8 111 79.8 21.6 6 42.4-12.6 39.4-35-0.6-4.2-2.6-10-4.2-12.8-5.4-8-210.2-160.6-227.2-169.2-35-17.6-75.2-18-110.6-0.8-16 7.6-223 161.6-228.2 169.8-16.4 24.8 9.8 58 37.6 47.6zM890.2 506.2c3.2-3.2 5.8-7.6 5.8-9.6 0-3-111.2-367.8-125.2-411.2-5.4-16.4-9.8-21.4-19.2-21.4-11.2 0-13.8 5-47.8 93.6l-32.4 84.8 43 43.2c23.8 23.8 44.2 45.4 45.4 47.8s2.2 8.6 2.2 14c0 18-12.6 30.6-30.6 30.6-5.4 0-11.6-1-14-2.2s-24-21.6-47.8-45.4l-43.4-43.2-84.6 32.6c-89 34-93.6 36.4-93.6 48 0 12.6-6 10.4 217 79.2 115.6 35.6 212 64.8 214.6 64.8 2.6 0.2 7.2-2.4 10.6-5.6zM618.4 201.6c6.2-15.8 8.4-24.2 7-24.6s-14.6-2.2-29.4-4c-14.8-1.8-29.2-3.6-32-4.2-2.8-0.4-6.6 0.2-8.6 1.6-3.2 2.4-3.2 4.4 0.8 35.6 2.2 18.2 4.4 34 4.8 35.4s8.8-0.8 24.6-7l23.6-9.2 9.2-23.6z" />
<glyph unicode="&#xe917;" glyph-name="7" d="M557.8 955.2c-11.2-4-19.2-10.6-25.2-20.8-7.2-12.2-7.8-31-1.2-43.6 9.6-18 18.4-22.4 63.4-30.6 61-11.4 129.2-43 179.2-83.6 19.8-16.2 56.2-53.6 71.6-74 39.4-52 64.4-108.4 78.6-178 5.2-25.6 7.4-93.4 3.8-122-6.2-49.8-19-94-40-136.2-42.2-85.2-107-150-192.2-192.2-58.4-29-115.4-42-183.2-42.2-68.2 0-123.6 12.6-183.6 41.8-83.2 40.8-148.8 105.2-190.6 187.8-27.8 54.6-40.4 103-44.4 169.2-1.8 29.4-2.2 32.4-7.6 42-10.4 18.4-34.8 28-54.8 21.4-10.8-3.6-22.6-14.8-27.6-26.6-4.4-10-4.4-12.2-3.2-39.6 5.8-130 57.8-248.4 149.4-339.8 120-120.2 288.8-172.2 456.8-141.2 205.8 38.2 370.2 202.4 407.8 407.8 26.6 144-7.2 287.2-95.2 404.8-17.8 23.8-60.4 67.8-84.6 87.4-66.8 54.2-150.8 92.6-234.6 107-26.4 4.6-32.8 4.8-42.6 1.2zM112.8 948.2c-45.6-7.4-80.4-36.2-91.4-76.2-4.6-16-6-30.2-4.2-43.2 3.6-29.2 34.4-40 53.6-18.8 7 7.8 8.4 12.2 7.4 24.6-1 11.4 3.8 26.8 10.8 34.8 23.2 27.2 79 22.4 97.8-8.2 7.2-11.4 9.2-29.4 5.2-46.6-3.2-15-17.4-29.6-66-68.4-59.4-47.4-91.6-82.2-106.2-115.2-7-15.6-3.2-29.4 11-39.8 5.4-4 8-4.2 108.4-4.8 100.4-0.4 103-0.4 110.8 3.6 21.8 11 21.8 42.8 0 54.2-6.4 3.4-12.8 3.8-75 3.8l-68 0.2 12 11.2c6.6 6.2 29.2 24.8 50 41.6 44.2 35.4 65.6 57 74.6 74.6 18.6 37.6 16.2 89.8-6 122-15 22-41.8 40.2-69.4 47.4-15.2 3.8-41.4 5.4-55.4 3.2zM435 947.2c-3.2-1.4-8.8-5.8-12.2-9.4-17-18.4-183-218.2-185.8-224-6.6-12.4-1.6-28.6 11.8-38.6 5.2-4 8.2-4.2 86.4-4.8l80.8-0.6v-30.6c0-28.4 0.4-31 4.6-37.2 7.4-11 14.4-15 26.4-15 11.6 0 18.2 3.6 25.8 13.8 3.8 4.8 4.2 8.8 4.8 37.4l0.6 31.8h9.6c19.8 0 34.8 13.4 34.8 31 0 18.2-13.6 31-32.8 31h-11.6l-0.6 98.8c-0.6 96.4-0.8 99-4.8 104.4-9.6 12.8-25.2 17.8-37.8 12zM415.4 732.6c-0.4-0.4-19.4-0.4-42.2-0.2l-41.4 0.6 41.6 49.6 41.6 49.8 0.6-49.6c0.2-27.2 0.2-49.8-0.2-50.2zM702 751c-8-3.6-468.4-462.4-473.2-471.8-9.2-17.2 1.6-40.8 20.4-44.4 18.2-3.4 2.2-18.2 255.6 234.8 137.2 137.2 234.8 236 236.4 239.8 11 25.4-14.6 52.4-39.2 41.6zM602 486.4c-8.2-4-15-13.6-16.8-23.6-1.8-8.8 5-23.4 13.4-29.6 5.4-4 8.8-4.2 70.6-4.8 35.6-0.2 64.8-1 64.8-1.6s-36-57.2-79.8-125.8c-44-68.4-81.2-127.4-83-130.6-6.2-12.2-2.6-27.4 8.6-37 11.8-9.8 30.4-8.8 40.6 2 8 8.6 198 306.6 201 315.2 4.8 13.8-2.4 29.6-16.2 36.2-6 2.8-18.2 3.2-101.6 3.2-86 0-95.2-0.4-101.6-3.6z" />
</font>
</defs>
</svg>
